<svg width="32" height="32" viewBox="0 0 32 32" fill="none" xmlns="http://www.w3.org/2000/svg">
<path d="M26.6665 3.20007H5.33339C4.16027 3.20007 3.19995 4.16039 3.19995 5.33351V26.667C3.19995 27.8394 4.16027 28.8001 5.33339 28.8001H26.6665C27.8396 28.8001 28.7999 27.8394 28.7999 26.667V5.33351C28.7999 4.16039 27.8396 3.20007 26.6665 3.20007ZM26.6665 26.667H18.1334V18.1332H23.4665V16.0001H18.1334V13.8666C18.1334 12.099 19.5667 10.6666 21.3334 10.6666H23.4665V8.53319H21.3334C18.3884 8.53351 16 10.9204 16 13.8666V16.0001H13.8665V18.1332H16V26.667H5.33339V5.33351H26.6665V26.667Z" fill="white"/>
</svg>
