<svg width="45" height="45" viewBox="0 0 45 45" fill="none" xmlns="http://www.w3.org/2000/svg">
<path d="M20.6736 37.0113C13.377 36.1035 7.87457 29.865 7.87457 22.4999C7.87457 20.1408 8.44946 17.8018 9.53579 15.7263C10.8738 14.3144 11.392 12.2911 10.8879 10.4093C10.3712 8.48099 8.8505 6.9604 6.91946 6.44088C6.61571 6.35905 6.2913 6.44606 6.06903 6.66869C4.65654 8.08408 4.09993 10.1613 4.61664 12.0899C5.04141 13.675 6.14479 14.984 7.59657 15.6886C7.26583 16.4127 6.98995 17.1616 6.76829 17.9269C6.6063 17.7082 6.42797 17.4998 6.23268 17.3045C4.82098 15.8929 2.74386 15.3362 0.811675 15.8519C0.507662 15.933 0.270181 16.1705 0.189058 16.4745C-0.326508 18.4066 0.230191 20.4838 1.64171 21.8955C2.70528 22.9591 4.14642 23.5373 5.61894 23.5373C5.79525 23.5373 5.97208 23.5287 6.14875 23.5121C6.20596 24.4427 6.34079 25.3546 6.54856 26.2401C6.29869 26.1316 6.03976 26.0401 5.77275 25.9686C3.8446 25.4517 1.76722 26.0083 0.351656 27.421C0.129029 27.6432 0.0421052 27.9676 0.123844 28.2714C0.643365 30.2026 2.16405 31.7231 4.09237 32.2398C4.56856 32.3674 5.05354 32.4295 5.53562 32.4295C6.68321 32.4294 7.81225 32.0757 8.75989 31.4152C9.2933 32.2362 9.89851 33.0073 10.5673 33.7195C8.68606 33.8214 6.95848 34.8731 6.00733 36.5166C5.84974 36.789 5.84974 37.1247 6.00733 37.3971C7.00893 39.1279 8.87133 40.2032 10.8678 40.2032C12.8565 40.2032 14.7119 39.136 15.7163 37.4169C17.1881 38.0872 18.7799 38.5474 20.4565 38.756C20.4934 38.7605 20.5299 38.7627 20.5661 38.7627C21.0031 38.7627 21.3819 38.4371 21.4372 37.9922C21.4973 37.5104 21.1553 37.0714 20.6736 37.0113ZM4.54738 30.5417C3.39513 30.233 2.45453 29.4017 1.99442 28.3168C2.93529 27.6072 4.16505 27.3574 5.31783 27.6664C6.47007 27.9751 7.41068 28.8064 7.87079 29.8913C6.92983 30.6009 5.69954 30.8505 4.54738 30.5417ZM6.31451 11.6349C6.00575 10.4825 6.25536 9.25241 6.9649 8.31145C8.04991 8.77156 8.88126 9.71217 9.18994 10.8643C9.4987 12.0167 9.249 13.2468 8.53946 14.1877C7.45454 13.7275 6.62327 12.7871 6.31451 11.6349ZM2.88475 20.6524C2.04118 19.8089 1.64233 18.6187 1.78629 17.449C2.95621 17.3052 4.14616 17.7039 4.98964 18.5475C5.83322 19.3909 6.23207 20.5812 6.0881 21.7508C4.9181 21.8944 3.72833 21.4958 2.88475 20.6524ZM10.8679 38.4452C9.67492 38.4452 8.55132 37.8857 7.82605 36.9567C8.55132 36.0278 9.67492 35.4682 10.8679 35.4682C12.0608 35.4682 13.1844 36.0278 13.9097 36.9567C13.1845 37.8857 12.0608 38.4452 10.8679 38.4452Z" fill="#5D3DE3"/>
<path d="M39.2246 25.9684C38.9575 26.04 38.6987 26.1315 38.4488 26.2399C38.6566 25.3543 38.7914 24.4426 38.8486 23.5119C39.0253 23.5286 39.202 23.5371 39.3784 23.5371C40.8508 23.5371 42.2922 22.9589 43.3556 21.8953C44.7673 20.4836 45.324 18.4065 44.8083 16.4743C44.7272 16.1703 44.4897 15.9328 44.1857 15.8517C42.2538 15.3364 40.1764 15.8928 38.7647 17.3043C38.5694 17.4996 38.3911 17.7081 38.2291 17.9267C38.0074 17.1614 37.7315 16.4126 37.4008 15.6884C38.8526 14.9839 39.9559 13.6749 40.3807 12.0896C40.8974 10.1612 40.3408 8.084 38.9283 6.66852C38.7061 6.44589 38.3819 6.35871 38.0779 6.44071C36.1468 6.96023 34.6262 8.48082 34.1095 10.4091C33.6053 12.2909 34.1235 14.3142 35.4616 15.7262C36.548 17.8016 37.1228 20.1407 37.1228 22.4997C37.1228 29.8648 31.6204 36.1034 24.3237 37.0112C23.8421 37.0712 23.5001 37.5102 23.56 37.9919C23.6154 38.4368 23.994 38.7624 24.4311 38.7624C24.4673 38.7624 24.5039 38.7602 24.5407 38.7556C26.2174 38.547 27.8092 38.0869 29.2809 37.4165C30.2853 39.1357 32.1407 40.2028 34.1295 40.2028C36.1259 40.2028 37.9882 39.1277 38.9899 37.3968C39.1475 37.1244 39.1475 36.7886 38.9899 36.5163C38.0388 34.8727 36.3112 33.821 34.43 33.7191C35.0988 33.007 35.704 32.2359 36.2373 31.4149C37.1849 32.0754 38.314 32.4292 39.4616 32.4292C39.9436 32.4292 40.4288 32.3669 40.9049 32.2394C42.8332 31.7228 44.3539 30.2022 44.8734 28.2711C44.9552 27.9672 44.8682 27.6429 44.6456 27.4206C43.2302 26.0082 41.153 25.4515 39.2246 25.9684ZM40.0077 18.5474C40.8513 17.7037 42.0409 17.305 43.2111 17.4489C43.355 18.6187 42.9562 19.8089 42.1126 20.6523C41.2691 21.4958 40.0789 21.8946 38.9093 21.7507C38.7653 20.5811 39.1641 19.3909 40.0077 18.5474ZM35.8074 10.8642C36.1162 9.71208 36.9475 8.77148 38.0325 8.31137C38.742 9.25233 38.9916 10.4824 38.6828 11.6348C38.374 12.7871 37.5427 13.7276 36.4579 14.1877C35.7484 13.2468 35.4987 12.0167 35.8074 10.8642ZM37.1714 36.9567C36.4461 37.8856 35.3225 38.4452 34.1296 38.4452C32.9366 38.4452 31.8131 37.8857 31.0878 36.9567C31.8131 36.0279 32.9366 35.4683 34.1296 35.4683C35.3225 35.4683 36.4461 36.0279 37.1714 36.9567ZM40.45 30.5417C39.2976 30.8505 38.0676 30.6009 37.1266 29.8913C37.5867 28.8063 38.5273 27.9751 39.6795 27.6664C40.8322 27.3577 42.0621 27.6073 43.0029 28.3168C42.5428 29.4017 41.6023 30.233 40.45 30.5417Z" fill="#5D3DE3"/>
<path d="M28.149 30.9394C28.777 30.4832 29.0267 29.7117 28.7853 28.9739L27.4048 24.7567L31.0087 22.1503C31.637 21.6959 31.8887 20.9256 31.6499 20.188C31.4111 19.4503 30.7558 18.9737 29.9805 18.9737H25.5308L24.1685 14.759C23.9298 14.0209 23.2745 13.5439 22.4988 13.5439C21.7231 13.5439 21.0678 14.0209 20.8291 14.7589L19.4667 18.9737H15.0171C14.2418 18.9737 13.5865 19.4504 13.3477 20.188C13.1089 20.9257 13.3605 21.6959 13.9889 22.1502L17.5928 24.7567L16.2123 28.974C15.9709 29.7118 16.2207 30.4832 16.8486 30.9394C17.162 31.1672 17.521 31.281 17.88 31.281C18.2402 31.281 18.6004 31.1664 18.9144 30.9372L22.4988 28.3209L26.0831 30.9372C26.7101 31.3949 27.521 31.3957 28.149 30.9394ZM22.4988 26.354C22.3169 26.354 22.1349 26.4103 21.9806 26.523L17.8859 29.5117L19.4629 24.6939C19.5818 24.3307 19.4523 23.9323 19.1426 23.7083L15.0266 20.7316H20.1062C20.4875 20.7316 20.8253 20.4857 20.9426 20.123L22.4987 15.3089L24.0548 20.123C24.1721 20.4857 24.5099 20.7316 24.8912 20.7316H29.9708L25.8548 23.7083C25.5452 23.9323 25.4157 24.3307 25.5345 24.6939L27.1116 29.5117L23.0168 26.523C22.8627 26.4103 22.6807 26.354 22.4988 26.354Z" fill="#5D3DE3"/>
<path d="M22.4988 1.75781C22.7299 1.75781 22.9567 1.66377 23.1201 1.50021C23.2835 1.33682 23.3777 1.11006 23.3777 0.878906C23.3777 0.647754 23.2836 0.420996 23.1201 0.25752C22.9567 0.094043 22.7299 0 22.4988 0C22.2676 0 22.0409 0.0939551 21.8774 0.25752C21.7139 0.421084 21.6199 0.647754 21.6199 0.878906C21.6199 1.11006 21.7138 1.33594 21.8774 1.50021C22.0409 1.66377 22.2676 1.75781 22.4988 1.75781Z" fill="#5D3DE3"/>
<path d="M15.612 9.81114C15.7612 10.1309 16.0782 10.3187 16.4092 10.3187C16.5335 10.3187 16.6599 10.2922 16.7801 10.2363C17.22 10.0311 17.4103 9.50818 17.2052 9.0682L14.9111 4.14844C14.706 3.70872 14.1833 3.51835 13.743 3.72331C13.3031 3.92845 13.1128 4.4514 13.3179 4.89138L15.612 9.81114Z" fill="#5D3DE3"/>
<path d="M22.4976 10.0633H22.4988C22.9838 10.0633 23.3771 9.67053 23.3777 9.18555L23.3832 4.8405C23.3838 4.35517 22.9909 3.96106 22.5055 3.96045C22.5051 3.96045 22.5047 3.96045 22.5043 3.96045C22.0193 3.96045 21.626 4.35323 21.6254 4.83821L21.6199 9.18326C21.6193 9.66868 22.0122 10.0627 22.4976 10.0633Z" fill="#5D3DE3"/>
<path d="M28.2174 10.2362C28.3375 10.2922 28.4639 10.3187 28.5883 10.3187C28.9194 10.3187 29.2363 10.1308 29.3855 9.81112L31.6796 4.89135C31.8847 4.45137 31.6943 3.92842 31.2545 3.72329C30.8144 3.51841 30.2916 3.70861 30.0864 4.14841L27.7923 9.06818C27.5871 9.50816 27.7775 10.0311 28.2174 10.2362Z" fill="#5D3DE3"/>
</svg>
