<svg width="39" height="40" viewBox="0 0 39 40" fill="none" xmlns="http://www.w3.org/2000/svg">
<path d="M34.4801 9.82191C35.0105 8.71542 35.3737 7.5679 35.3737 6.49912C35.3737 3.46693 32.9505 1 29.972 1C28.0438 1 26.3493 2.03478 25.3933 3.58677C24.3455 3.27463 23.2645 3.05763 22.1754 2.94346C21.8646 2.91059 21.5858 3.14127 21.5537 3.45824C21.5216 3.77514 21.7481 4.05848 22.0594 4.09105C23.0157 4.19124 23.9657 4.3753 24.8893 4.63863C24.6834 5.22005 24.5706 5.84636 24.5706 6.49912C24.5706 10.3851 29.3673 15.3132 29.5714 15.521C29.7897 15.7432 30.1546 15.7432 30.3728 15.521C30.5017 15.3897 32.4619 13.376 33.8892 10.9311C35.0539 12.5127 35.9281 14.2507 36.4943 16.0943L28.2759 16.975C28.1293 16.9908 27.9943 17.0641 27.8999 17.1795C27.8148 17.2834 25.8045 19.743 24.775 21.3183C23.6106 21.3972 22.5456 21.8521 21.698 22.5665L21.5912 21.9142L20.8609 17.479C20.8386 17.3435 20.7696 17.2207 20.6663 17.1324L16.2846 13.3894C16.201 13.318 16.0989 13.2727 15.9906 13.2589L11.501 12.6876C10.9493 11.0817 9.68605 9.81428 8.09739 9.27788C11.1154 6.08777 15.1373 4.22585 19.4973 4.01859C19.8099 4.00378 20.0514 3.73373 20.0369 3.41555C20.0224 3.09737 19.7571 2.84991 19.4446 2.86624C16.9826 2.9832 14.6151 3.59591 12.4079 4.68706C10.2686 5.74474 8.37876 7.20076 6.79077 9.01463C6.66208 9.00526 6.53257 8.99877 6.40157 8.99877C3.42317 8.99877 1 11.4657 1 14.4979C1 15.8678 1.59642 17.3672 2.37735 18.7437C2.26565 19.5741 2.20873 20.4225 2.20873 21.2661C2.20873 26.1864 4.09084 30.812 7.50817 34.2911C10.9255 37.7702 15.4692 39.6863 20.3021 39.6863C25.1351 39.6863 29.6787 37.7702 33.0961 34.2911C36.5135 30.812 38.3955 26.1863 38.3955 21.2661C38.3955 17.0617 37.0415 13.1059 34.4801 9.82191ZM29.972 14.2751C28.8403 13.025 25.7036 9.30697 25.7036 6.49912C25.7036 4.10306 27.6184 2.15364 29.972 2.15364C32.3257 2.15364 34.2404 4.10299 34.2404 6.49912C34.2404 9.30705 31.1038 13.0251 29.972 14.2751ZM25.1371 22.4582C27.4906 22.4582 29.4055 24.4075 29.4055 26.8037C29.4055 29.6115 26.2688 33.3296 25.1371 34.5797C24.0053 33.3296 20.8687 29.6115 20.8687 26.8037C20.8687 24.4076 22.7835 22.4582 25.1371 22.4582ZM2.1331 14.4979C2.1331 12.1018 4.04787 10.1524 6.40149 10.1524C8.75512 10.1524 10.6699 12.1018 10.6699 14.4979C10.6699 17.3057 7.53333 21.0238 6.40149 22.2739C5.26966 21.0238 2.1331 17.3057 2.1331 14.4979ZM3.34183 21.2661C3.34183 20.947 3.35081 20.6272 3.36795 20.308C4.61022 22.0923 5.89718 23.4143 6.00086 23.5198C6.21899 23.7419 6.58407 23.7419 6.80213 23.5198C6.90871 23.4113 8.26691 22.0161 9.54088 20.1546L11.7513 25.2178C11.7985 25.3262 11.8776 25.4171 11.9776 25.4781L15.2404 27.4712L13.7751 31.9919L9.97936 34.9561C5.94616 31.7966 3.34183 26.8355 3.34183 21.2661ZM10.9423 35.6578L14.6031 32.799C14.6933 32.7286 14.7606 32.632 14.7963 32.5221L16.4584 27.3946C16.5414 27.1385 16.439 26.858 16.2119 26.7193L12.714 24.5826L10.2773 19.0008C11.13 17.5556 11.8031 15.9536 11.8031 14.4979C11.8031 14.2904 11.7907 14.0859 11.7687 13.8843L15.6843 14.3826L19.7779 17.8795L20.4735 22.1044L20.7246 23.638C20.1026 24.5338 19.7356 25.6256 19.7356 26.8037C19.7356 27.5705 19.9228 28.3779 20.2242 29.1815L18.629 33.7933L13.2159 36.9513C12.4232 36.5786 11.6635 36.1456 10.9423 35.6578ZM20.3021 38.5326C18.281 38.5326 16.3416 38.1702 14.5426 37.5069L19.3751 34.6876C19.493 34.6188 19.5827 34.5092 19.6278 34.3787L20.9081 30.6774C22.3423 33.367 24.5979 35.6844 24.7364 35.8256C24.9547 36.0477 25.3196 36.0477 25.5378 35.8256C25.6968 35.6637 28.6432 32.6368 29.9373 29.4696L34.5695 30.5924C31.5487 35.3654 26.282 38.5326 20.3021 38.5326ZM30.3114 28.3745C30.4554 27.8416 30.5387 27.3136 30.5387 26.8037C30.5387 24.1069 28.6213 21.8589 26.1019 21.3942C26.9719 20.1561 28.205 18.6164 28.6245 18.0977L36.7994 17.2217C37.1057 18.5296 37.2623 19.8834 37.2623 21.266C37.2623 24.2675 36.5056 27.0922 35.1769 29.5538L30.3114 28.3745Z" fill="#5D3DE3" stroke="#5D3DE3" stroke-width="0.5"/>
<path d="M25.137 23.7656C23.4915 23.7656 22.1528 25.1285 22.1528 26.8036C22.1528 28.4787 23.4915 29.8416 25.137 29.8416C26.7824 29.8416 28.1211 28.4787 28.1211 26.8036C28.1211 25.1285 26.7824 23.7656 25.137 23.7656ZM25.137 28.6879C24.1163 28.6879 23.2861 27.8425 23.2861 26.8036C23.2861 25.7647 24.1164 24.9193 25.137 24.9193C26.1576 24.9193 26.9878 25.7647 26.9878 26.8036C26.9878 27.8425 26.1576 28.6879 25.137 28.6879Z" fill="#5D3DE3" stroke="#5D3DE3" stroke-width="0.5"/>
<path d="M29.9719 3.46094C28.3265 3.46094 26.9878 4.82381 26.9878 6.49896C26.9878 8.17412 28.3265 9.53699 29.9719 9.53699C31.6173 9.53699 32.956 8.17412 32.956 6.49896C32.956 4.82381 31.6173 3.46094 29.9719 3.46094ZM29.9719 8.38327C28.9512 8.38327 28.121 7.53791 28.121 6.49896C28.121 5.45994 28.9513 4.61466 29.9719 4.61466C30.9925 4.61466 31.8228 5.46002 31.8228 6.49896C31.8228 7.53791 30.9925 8.38327 29.9719 8.38327Z" fill="#5D3DE3" stroke="#5D3DE3" stroke-width="0.5"/>
<path d="M6.40158 11.46C4.75616 11.46 3.41748 12.8228 3.41748 14.498C3.41748 16.1731 4.75616 17.536 6.40158 17.536C8.047 17.536 9.38568 16.1731 9.38568 14.498C9.38568 12.8228 8.047 11.46 6.40158 11.46ZM6.40158 16.3824C5.381 16.3824 4.55072 15.537 4.55072 14.4981C4.55072 13.459 5.38108 12.6138 6.40158 12.6138C7.42216 12.6138 8.25244 13.4591 8.25244 14.4981C8.25244 15.537 7.42216 16.3824 6.40158 16.3824Z" fill="#5D3DE3" stroke="#5D3DE3" stroke-width="0.5"/>
</svg>
