<svg width="40" height="39" viewBox="0 0 40 39" fill="none" xmlns="http://www.w3.org/2000/svg">
<g clip-path="url(#clip0)">
<mask id="path-1-outside-1" maskUnits="userSpaceOnUse" x="-1" y="6.85522" width="42" height="33" fill="black">
<rect fill="white" x="-1" y="6.85522" width="42" height="33"/>
<path d="M39.8371 16.6328L33.1421 8.15335C32.8943 7.83974 32.4424 7.76238 32.0997 7.97482L27.7772 10.6551H22.1396C22.0667 10.6551 21.9941 10.6703 21.9239 10.6902L17.5528 11.917L13.0173 10.7075L8.61028 7.97482C8.27336 7.76595 7.82964 7.83676 7.57909 8.13966L0.173995 17.0827C-0.0921179 17.4041 -0.0481726 17.8733 0.272872 18.1426L4.1541 21.3992L7.63616 25.9743C6.61778 27.0321 6.63762 28.7004 7.69719 29.7338C8.16686 30.1914 8.76408 30.45 9.3784 30.5101C9.35704 30.6458 9.34606 30.7835 9.34606 30.9234C9.34606 31.6452 9.63445 32.3239 10.1578 32.8342C10.6815 33.3448 11.3776 33.626 12.118 33.626C12.128 33.626 12.1378 33.6254 12.1476 33.6251C12.1473 33.6436 12.1463 33.6617 12.1463 33.6802C12.1463 34.402 12.4347 35.0807 12.9581 35.5913C13.4818 36.1016 14.1779 36.3828 14.9183 36.3828C15.0644 36.3828 15.2091 36.3712 15.351 36.3497C15.4111 36.9508 15.6769 37.5358 16.1481 37.9952C16.6883 38.5221 17.3981 38.7855 18.108 38.7855C18.8178 38.7855 19.5276 38.5221 20.0681 37.9952L20.492 37.5819L20.6699 37.7217C21.2058 38.2279 21.9016 38.4808 22.5974 38.4808C23.3072 38.4808 24.0171 38.2174 24.5572 37.6905C25.1087 37.1528 25.3788 36.4432 25.3675 35.7371C26.0914 35.7478 26.8195 35.4848 27.371 34.9474C27.9218 34.41 28.1919 33.701 28.1812 32.9952C28.9353 33.0068 29.6506 32.7244 30.1844 32.204C30.7358 31.6664 31.0059 30.9567 30.9946 30.2506C31.7191 30.2614 32.4466 29.9983 32.9981 29.4607C33.9393 28.543 34.0604 27.1246 33.3625 26.0776L35.9049 20.886L39.7272 17.679C40.0431 17.4139 40.0913 16.9545 39.8371 16.6328ZM8.35942 9.63186L11.5284 11.5966L4.63475 19.785L1.8723 17.4669L8.35942 9.63186ZM8.8065 26.9931L9.76293 26.0606C9.79192 26.0323 9.82243 26.0055 9.85356 25.9806C10.0406 25.8318 10.2671 25.7431 10.5069 25.722C10.5137 25.7214 10.5207 25.7214 10.5274 25.7211C10.5616 25.7184 10.5958 25.7166 10.6302 25.7169C10.958 25.7214 11.2626 25.852 11.4884 26.0844C11.9315 26.5411 11.9077 27.2874 11.4353 27.748L10.5079 28.6522C10.0388 29.1096 9.27556 29.1096 8.8065 28.6522C8.33745 28.1946 8.33745 27.4504 8.8065 26.9931ZM11.2671 31.7527C11.0398 31.5313 10.9147 31.2367 10.9147 30.9234C10.9147 30.6101 11.0398 30.3155 11.2671 30.0938L13.1217 28.2856C13.4769 27.9393 14.0354 27.8444 14.4895 28.0553C14.9576 28.2729 15.221 28.7683 15.1523 29.2667C15.1157 29.5327 14.9888 29.7832 14.7941 29.9733L12.9688 31.7527C12.7414 31.9743 12.4393 32.0963 12.118 32.0963C11.7966 32.0963 11.4945 31.9743 11.2671 31.7527ZM14.0674 34.5094C13.8401 34.288 13.715 33.9935 13.715 33.6802C13.715 33.3668 13.8401 33.0723 14.0674 32.8506L15.9217 31.0424C16.3016 30.6723 16.9111 30.5925 17.3761 30.8564C17.801 31.0975 18.0234 31.5706 17.9505 32.0419C17.9105 32.301 17.7842 32.5447 17.594 32.7301L15.7691 34.5094C15.5417 34.7311 15.2396 34.8531 14.9183 34.8531C14.5969 34.8531 14.2948 34.7311 14.0674 34.5094ZM17.2571 36.9136C16.7881 36.4563 16.7881 35.7121 17.2571 35.2548L18.2136 34.3223C18.2425 34.294 18.2728 34.2675 18.3039 34.2425C18.3048 34.2419 18.3054 34.2413 18.306 34.2407C18.4617 34.1176 18.6445 34.0351 18.8395 33.9991C18.844 33.9985 18.8486 33.9979 18.8532 33.9973C18.8868 33.9914 18.9209 33.9866 18.9551 33.9837C18.9689 33.9825 18.9826 33.9825 18.9966 33.9816C19.0247 33.9801 19.0525 33.9783 19.0809 33.9786C19.4083 33.9831 19.7132 34.1134 19.939 34.3461C19.9668 34.3746 19.9927 34.4044 20.0165 34.435C20.3772 34.8947 20.3287 35.5776 19.881 36.0144L18.9585 36.9139C18.4894 37.3712 17.7262 37.3709 17.2571 36.9136ZM31.8888 28.3791C31.4197 28.8367 30.6565 28.8364 30.1874 28.3791C30.1703 28.3624 30.1523 28.3469 30.134 28.3324L25.0907 23.3633C24.7858 23.0631 24.2893 23.0607 23.9814 23.358C23.6735 23.6549 23.671 24.139 23.9756 24.4393L29.0735 29.4615C29.0741 29.4621 29.0748 29.4627 29.0754 29.4633C29.5444 29.9207 29.5444 30.6651 29.0754 31.1225C28.848 31.3441 28.5459 31.4661 28.2245 31.4661C27.9029 31.4661 27.6008 31.3441 27.3737 31.1225L23.9634 27.7629C23.6588 27.4626 23.1623 27.4603 22.8544 27.7572C22.5464 28.0545 22.544 28.5386 22.8486 28.8388L26.2067 32.1469C26.2238 32.1677 26.2421 32.1877 26.2616 32.2067C26.7307 32.664 26.7307 33.4085 26.2616 33.8658C25.7923 34.3232 25.0287 34.3229 24.5597 33.8655L22.6984 32.0318C22.3935 31.7315 21.897 31.7289 21.5891 32.0261C21.2812 32.3231 21.2787 32.8072 21.5833 33.1074L23.3927 34.8897C23.4098 34.9105 23.4281 34.9307 23.4479 34.9498C23.917 35.4071 23.917 36.1516 23.4479 36.6089C22.9789 37.0665 22.2156 37.0662 21.7466 36.6089C21.6926 36.5562 21.6291 36.5158 21.5687 36.4706C21.5174 36.4325 21.504 36.406 21.5296 36.3453C21.5555 36.2837 21.5943 36.2281 21.6202 36.1662C21.6489 36.0971 21.6721 36.026 21.6947 35.9546C21.8149 35.5767 21.8503 35.1703 21.7963 34.7781C21.6926 34.0256 21.2681 33.3466 20.6247 32.917C20.2771 32.6852 19.8749 32.5331 19.4581 32.476C19.6601 31.6072 19.4175 30.6651 18.7864 30.015C18.267 29.48 17.5654 29.1798 16.8107 29.1697C16.7832 29.1694 16.7557 29.1694 16.728 29.1697C16.7447 28.4674 16.4829 27.7697 15.9864 27.2582C15.4667 26.7232 14.7651 26.423 14.0107 26.4129C13.7864 26.4099 13.5599 26.4331 13.3414 26.4822C13.248 25.8487 12.9206 25.2626 12.4247 24.8433C11.9318 24.4274 11.312 24.1965 10.6519 24.1875C9.95702 24.1777 9.27434 24.4277 8.75829 24.882L5.72636 20.8988L12.9798 12.283L15.2915 12.8995L12.2724 18.0938C11.9074 18.7219 11.8152 19.4509 12.0127 20.1466C12.2101 20.8425 12.6734 21.4215 13.3176 21.7774C13.3579 21.7997 13.3985 21.8209 13.4397 21.8411C13.4427 21.8426 13.4458 21.8441 13.4491 21.8455C13.5575 21.8982 13.6689 21.9434 13.7818 21.9815C14.3076 22.1592 14.8755 22.1785 15.4233 22.0309C16.1368 21.8384 16.7307 21.3864 17.0957 20.7586L19.0577 17.3829L22.5608 17.6251L31.8891 26.72C32.3578 27.1776 32.3578 27.9217 31.8888 28.3791ZM32.2138 24.8737L23.4629 16.3418C23.4464 16.3255 23.429 16.31 23.411 16.2954C23.285 16.1931 23.1287 16.1312 22.9639 16.1199L18.6747 15.8232C18.378 15.8033 18.0832 15.9571 17.9368 16.2091L15.7309 20.0046C15.5726 20.2772 15.3147 20.4733 15.0049 20.5569C14.6955 20.6405 14.3708 20.6012 14.0909 20.4468C13.8114 20.2924 13.6103 20.0409 13.5245 19.7389C13.4388 19.4369 13.4787 19.1203 13.6374 18.8478L16.5821 13.7808L17.7753 13.4461C17.7833 13.4437 17.7909 13.4408 17.7988 13.4384L22.2522 12.1845H27.6331L34.3506 20.5105L32.2138 24.8737ZM35.3782 19.3102L29.166 11.6064L32.3365 9.64049L38.1412 16.992L35.3782 19.3102Z"/>
</mask>
<path d="M39.8371 16.6328L33.1421 8.15335C32.8943 7.83974 32.4424 7.76238 32.0997 7.97482L27.7772 10.6551H22.1396C22.0667 10.6551 21.9941 10.6703 21.9239 10.6902L17.5528 11.917L13.0173 10.7075L8.61028 7.97482C8.27336 7.76595 7.82964 7.83676 7.57909 8.13966L0.173995 17.0827C-0.0921179 17.4041 -0.0481726 17.8733 0.272872 18.1426L4.1541 21.3992L7.63616 25.9743C6.61778 27.0321 6.63762 28.7004 7.69719 29.7338C8.16686 30.1914 8.76408 30.45 9.3784 30.5101C9.35704 30.6458 9.34606 30.7835 9.34606 30.9234C9.34606 31.6452 9.63445 32.3239 10.1578 32.8342C10.6815 33.3448 11.3776 33.626 12.118 33.626C12.128 33.626 12.1378 33.6254 12.1476 33.6251C12.1473 33.6436 12.1463 33.6617 12.1463 33.6802C12.1463 34.402 12.4347 35.0807 12.9581 35.5913C13.4818 36.1016 14.1779 36.3828 14.9183 36.3828C15.0644 36.3828 15.2091 36.3712 15.351 36.3497C15.4111 36.9508 15.6769 37.5358 16.1481 37.9952C16.6883 38.5221 17.3981 38.7855 18.108 38.7855C18.8178 38.7855 19.5276 38.5221 20.0681 37.9952L20.492 37.5819L20.6699 37.7217C21.2058 38.2279 21.9016 38.4808 22.5974 38.4808C23.3072 38.4808 24.0171 38.2174 24.5572 37.6905C25.1087 37.1528 25.3788 36.4432 25.3675 35.7371C26.0914 35.7478 26.8195 35.4848 27.371 34.9474C27.9218 34.41 28.1919 33.701 28.1812 32.9952C28.9353 33.0068 29.6506 32.7244 30.1844 32.204C30.7358 31.6664 31.0059 30.9567 30.9946 30.2506C31.7191 30.2614 32.4466 29.9983 32.9981 29.4607C33.9393 28.543 34.0604 27.1246 33.3625 26.0776L35.9049 20.886L39.7272 17.679C40.0431 17.4139 40.0913 16.9545 39.8371 16.6328ZM8.35942 9.63186L11.5284 11.5966L4.63475 19.785L1.8723 17.4669L8.35942 9.63186ZM8.8065 26.9931L9.76293 26.0606C9.79192 26.0323 9.82243 26.0055 9.85356 25.9806C10.0406 25.8318 10.2671 25.7431 10.5069 25.722C10.5137 25.7214 10.5207 25.7214 10.5274 25.7211C10.5616 25.7184 10.5958 25.7166 10.6302 25.7169C10.958 25.7214 11.2626 25.852 11.4884 26.0844C11.9315 26.5411 11.9077 27.2874 11.4353 27.748L10.5079 28.6522C10.0388 29.1096 9.27556 29.1096 8.8065 28.6522C8.33745 28.1946 8.33745 27.4504 8.8065 26.9931ZM11.2671 31.7527C11.0398 31.5313 10.9147 31.2367 10.9147 30.9234C10.9147 30.6101 11.0398 30.3155 11.2671 30.0938L13.1217 28.2856C13.4769 27.9393 14.0354 27.8444 14.4895 28.0553C14.9576 28.2729 15.221 28.7683 15.1523 29.2667C15.1157 29.5327 14.9888 29.7832 14.7941 29.9733L12.9688 31.7527C12.7414 31.9743 12.4393 32.0963 12.118 32.0963C11.7966 32.0963 11.4945 31.9743 11.2671 31.7527ZM14.0674 34.5094C13.8401 34.288 13.715 33.9935 13.715 33.6802C13.715 33.3668 13.8401 33.0723 14.0674 32.8506L15.9217 31.0424C16.3016 30.6723 16.9111 30.5925 17.3761 30.8564C17.801 31.0975 18.0234 31.5706 17.9505 32.0419C17.9105 32.301 17.7842 32.5447 17.594 32.7301L15.7691 34.5094C15.5417 34.7311 15.2396 34.8531 14.9183 34.8531C14.5969 34.8531 14.2948 34.7311 14.0674 34.5094ZM17.2571 36.9136C16.7881 36.4563 16.7881 35.7121 17.2571 35.2548L18.2136 34.3223C18.2425 34.294 18.2728 34.2675 18.3039 34.2425C18.3048 34.2419 18.3054 34.2413 18.306 34.2407C18.4617 34.1176 18.6445 34.0351 18.8395 33.9991C18.844 33.9985 18.8486 33.9979 18.8532 33.9973C18.8868 33.9914 18.9209 33.9866 18.9551 33.9837C18.9689 33.9825 18.9826 33.9825 18.9966 33.9816C19.0247 33.9801 19.0525 33.9783 19.0809 33.9786C19.4083 33.9831 19.7132 34.1134 19.939 34.3461C19.9668 34.3746 19.9927 34.4044 20.0165 34.435C20.3772 34.8947 20.3287 35.5776 19.881 36.0144L18.9585 36.9139C18.4894 37.3712 17.7262 37.3709 17.2571 36.9136ZM31.8888 28.3791C31.4197 28.8367 30.6565 28.8364 30.1874 28.3791C30.1703 28.3624 30.1523 28.3469 30.134 28.3324L25.0907 23.3633C24.7858 23.0631 24.2893 23.0607 23.9814 23.358C23.6735 23.6549 23.671 24.139 23.9756 24.4393L29.0735 29.4615C29.0741 29.4621 29.0748 29.4627 29.0754 29.4633C29.5444 29.9207 29.5444 30.6651 29.0754 31.1225C28.848 31.3441 28.5459 31.4661 28.2245 31.4661C27.9029 31.4661 27.6008 31.3441 27.3737 31.1225L23.9634 27.7629C23.6588 27.4626 23.1623 27.4603 22.8544 27.7572C22.5464 28.0545 22.544 28.5386 22.8486 28.8388L26.2067 32.1469C26.2238 32.1677 26.2421 32.1877 26.2616 32.2067C26.7307 32.664 26.7307 33.4085 26.2616 33.8658C25.7923 34.3232 25.0287 34.3229 24.5597 33.8655L22.6984 32.0318C22.3935 31.7315 21.897 31.7289 21.5891 32.0261C21.2812 32.3231 21.2787 32.8072 21.5833 33.1074L23.3927 34.8897C23.4098 34.9105 23.4281 34.9307 23.4479 34.9498C23.917 35.4071 23.917 36.1516 23.4479 36.6089C22.9789 37.0665 22.2156 37.0662 21.7466 36.6089C21.6926 36.5562 21.6291 36.5158 21.5687 36.4706C21.5174 36.4325 21.504 36.406 21.5296 36.3453C21.5555 36.2837 21.5943 36.2281 21.6202 36.1662C21.6489 36.0971 21.6721 36.026 21.6947 35.9546C21.8149 35.5767 21.8503 35.1703 21.7963 34.7781C21.6926 34.0256 21.2681 33.3466 20.6247 32.917C20.2771 32.6852 19.8749 32.5331 19.4581 32.476C19.6601 31.6072 19.4175 30.6651 18.7864 30.015C18.267 29.48 17.5654 29.1798 16.8107 29.1697C16.7832 29.1694 16.7557 29.1694 16.728 29.1697C16.7447 28.4674 16.4829 27.7697 15.9864 27.2582C15.4667 26.7232 14.7651 26.423 14.0107 26.4129C13.7864 26.4099 13.5599 26.4331 13.3414 26.4822C13.248 25.8487 12.9206 25.2626 12.4247 24.8433C11.9318 24.4274 11.312 24.1965 10.6519 24.1875C9.95702 24.1777 9.27434 24.4277 8.75829 24.882L5.72636 20.8988L12.9798 12.283L15.2915 12.8995L12.2724 18.0938C11.9074 18.7219 11.8152 19.4509 12.0127 20.1466C12.2101 20.8425 12.6734 21.4215 13.3176 21.7774C13.3579 21.7997 13.3985 21.8209 13.4397 21.8411C13.4427 21.8426 13.4458 21.8441 13.4491 21.8455C13.5575 21.8982 13.6689 21.9434 13.7818 21.9815C14.3076 22.1592 14.8755 22.1785 15.4233 22.0309C16.1368 21.8384 16.7307 21.3864 17.0957 20.7586L19.0577 17.3829L22.5608 17.6251L31.8891 26.72C32.3578 27.1776 32.3578 27.9217 31.8888 28.3791ZM32.2138 24.8737L23.4629 16.3418C23.4464 16.3255 23.429 16.31 23.411 16.2954C23.285 16.1931 23.1287 16.1312 22.9639 16.1199L18.6747 15.8232C18.378 15.8033 18.0832 15.9571 17.9368 16.2091L15.7309 20.0046C15.5726 20.2772 15.3147 20.4733 15.0049 20.5569C14.6955 20.6405 14.3708 20.6012 14.0909 20.4468C13.8114 20.2924 13.6103 20.0409 13.5245 19.7389C13.4388 19.4369 13.4787 19.1203 13.6374 18.8478L16.5821 13.7808L17.7753 13.4461C17.7833 13.4437 17.7909 13.4408 17.7988 13.4384L22.2522 12.1845H27.6331L34.3506 20.5105L32.2138 24.8737ZM35.3782 19.3102L29.166 11.6064L32.3365 9.64049L38.1412 16.992L35.3782 19.3102Z" fill="#5D3DE3"/>
<path d="M39.8371 16.6328L33.1421 8.15335C32.8943 7.83974 32.4424 7.76238 32.0997 7.97482L27.7772 10.6551H22.1396C22.0667 10.6551 21.9941 10.6703 21.9239 10.6902L17.5528 11.917L13.0173 10.7075L8.61028 7.97482C8.27336 7.76595 7.82964 7.83676 7.57909 8.13966L0.173995 17.0827C-0.0921179 17.4041 -0.0481726 17.8733 0.272872 18.1426L4.1541 21.3992L7.63616 25.9743C6.61778 27.0321 6.63762 28.7004 7.69719 29.7338C8.16686 30.1914 8.76408 30.45 9.3784 30.5101C9.35704 30.6458 9.34606 30.7835 9.34606 30.9234C9.34606 31.6452 9.63445 32.3239 10.1578 32.8342C10.6815 33.3448 11.3776 33.626 12.118 33.626C12.128 33.626 12.1378 33.6254 12.1476 33.6251C12.1473 33.6436 12.1463 33.6617 12.1463 33.6802C12.1463 34.402 12.4347 35.0807 12.9581 35.5913C13.4818 36.1016 14.1779 36.3828 14.9183 36.3828C15.0644 36.3828 15.2091 36.3712 15.351 36.3497C15.4111 36.9508 15.6769 37.5358 16.1481 37.9952C16.6883 38.5221 17.3981 38.7855 18.108 38.7855C18.8178 38.7855 19.5276 38.5221 20.0681 37.9952L20.492 37.5819L20.6699 37.7217C21.2058 38.2279 21.9016 38.4808 22.5974 38.4808C23.3072 38.4808 24.0171 38.2174 24.5572 37.6905C25.1087 37.1528 25.3788 36.4432 25.3675 35.7371C26.0914 35.7478 26.8195 35.4848 27.371 34.9474C27.9218 34.41 28.1919 33.701 28.1812 32.9952C28.9353 33.0068 29.6506 32.7244 30.1844 32.204C30.7358 31.6664 31.0059 30.9567 30.9946 30.2506C31.7191 30.2614 32.4466 29.9983 32.9981 29.4607C33.9393 28.543 34.0604 27.1246 33.3625 26.0776L35.9049 20.886L39.7272 17.679C40.0431 17.4139 40.0913 16.9545 39.8371 16.6328ZM8.35942 9.63186L11.5284 11.5966L4.63475 19.785L1.8723 17.4669L8.35942 9.63186ZM8.8065 26.9931L9.76293 26.0606C9.79192 26.0323 9.82243 26.0055 9.85356 25.9806C10.0406 25.8318 10.2671 25.7431 10.5069 25.722C10.5137 25.7214 10.5207 25.7214 10.5274 25.7211C10.5616 25.7184 10.5958 25.7166 10.6302 25.7169C10.958 25.7214 11.2626 25.852 11.4884 26.0844C11.9315 26.5411 11.9077 27.2874 11.4353 27.748L10.5079 28.6522C10.0388 29.1096 9.27556 29.1096 8.8065 28.6522C8.33745 28.1946 8.33745 27.4504 8.8065 26.9931ZM11.2671 31.7527C11.0398 31.5313 10.9147 31.2367 10.9147 30.9234C10.9147 30.6101 11.0398 30.3155 11.2671 30.0938L13.1217 28.2856C13.4769 27.9393 14.0354 27.8444 14.4895 28.0553C14.9576 28.2729 15.221 28.7683 15.1523 29.2667C15.1157 29.5327 14.9888 29.7832 14.7941 29.9733L12.9688 31.7527C12.7414 31.9743 12.4393 32.0963 12.118 32.0963C11.7966 32.0963 11.4945 31.9743 11.2671 31.7527ZM14.0674 34.5094C13.8401 34.288 13.715 33.9935 13.715 33.6802C13.715 33.3668 13.8401 33.0723 14.0674 32.8506L15.9217 31.0424C16.3016 30.6723 16.9111 30.5925 17.3761 30.8564C17.801 31.0975 18.0234 31.5706 17.9505 32.0419C17.9105 32.301 17.7842 32.5447 17.594 32.7301L15.7691 34.5094C15.5417 34.7311 15.2396 34.8531 14.9183 34.8531C14.5969 34.8531 14.2948 34.7311 14.0674 34.5094ZM17.2571 36.9136C16.7881 36.4563 16.7881 35.7121 17.2571 35.2548L18.2136 34.3223C18.2425 34.294 18.2728 34.2675 18.3039 34.2425C18.3048 34.2419 18.3054 34.2413 18.306 34.2407C18.4617 34.1176 18.6445 34.0351 18.8395 33.9991C18.844 33.9985 18.8486 33.9979 18.8532 33.9973C18.8868 33.9914 18.9209 33.9866 18.9551 33.9837C18.9689 33.9825 18.9826 33.9825 18.9966 33.9816C19.0247 33.9801 19.0525 33.9783 19.0809 33.9786C19.4083 33.9831 19.7132 34.1134 19.939 34.3461C19.9668 34.3746 19.9927 34.4044 20.0165 34.435C20.3772 34.8947 20.3287 35.5776 19.881 36.0144L18.9585 36.9139C18.4894 37.3712 17.7262 37.3709 17.2571 36.9136ZM31.8888 28.3791C31.4197 28.8367 30.6565 28.8364 30.1874 28.3791C30.1703 28.3624 30.1523 28.3469 30.134 28.3324L25.0907 23.3633C24.7858 23.0631 24.2893 23.0607 23.9814 23.358C23.6735 23.6549 23.671 24.139 23.9756 24.4393L29.0735 29.4615C29.0741 29.4621 29.0748 29.4627 29.0754 29.4633C29.5444 29.9207 29.5444 30.6651 29.0754 31.1225C28.848 31.3441 28.5459 31.4661 28.2245 31.4661C27.9029 31.4661 27.6008 31.3441 27.3737 31.1225L23.9634 27.7629C23.6588 27.4626 23.1623 27.4603 22.8544 27.7572C22.5464 28.0545 22.544 28.5386 22.8486 28.8388L26.2067 32.1469C26.2238 32.1677 26.2421 32.1877 26.2616 32.2067C26.7307 32.664 26.7307 33.4085 26.2616 33.8658C25.7923 34.3232 25.0287 34.3229 24.5597 33.8655L22.6984 32.0318C22.3935 31.7315 21.897 31.7289 21.5891 32.0261C21.2812 32.3231 21.2787 32.8072 21.5833 33.1074L23.3927 34.8897C23.4098 34.9105 23.4281 34.9307 23.4479 34.9498C23.917 35.4071 23.917 36.1516 23.4479 36.6089C22.9789 37.0665 22.2156 37.0662 21.7466 36.6089C21.6926 36.5562 21.6291 36.5158 21.5687 36.4706C21.5174 36.4325 21.504 36.406 21.5296 36.3453C21.5555 36.2837 21.5943 36.2281 21.6202 36.1662C21.6489 36.0971 21.6721 36.026 21.6947 35.9546C21.8149 35.5767 21.8503 35.1703 21.7963 34.7781C21.6926 34.0256 21.2681 33.3466 20.6247 32.917C20.2771 32.6852 19.8749 32.5331 19.4581 32.476C19.6601 31.6072 19.4175 30.6651 18.7864 30.015C18.267 29.48 17.5654 29.1798 16.8107 29.1697C16.7832 29.1694 16.7557 29.1694 16.728 29.1697C16.7447 28.4674 16.4829 27.7697 15.9864 27.2582C15.4667 26.7232 14.7651 26.423 14.0107 26.4129C13.7864 26.4099 13.5599 26.4331 13.3414 26.4822C13.248 25.8487 12.9206 25.2626 12.4247 24.8433C11.9318 24.4274 11.312 24.1965 10.6519 24.1875C9.95702 24.1777 9.27434 24.4277 8.75829 24.882L5.72636 20.8988L12.9798 12.283L15.2915 12.8995L12.2724 18.0938C11.9074 18.7219 11.8152 19.4509 12.0127 20.1466C12.2101 20.8425 12.6734 21.4215 13.3176 21.7774C13.3579 21.7997 13.3985 21.8209 13.4397 21.8411C13.4427 21.8426 13.4458 21.8441 13.4491 21.8455C13.5575 21.8982 13.6689 21.9434 13.7818 21.9815C14.3076 22.1592 14.8755 22.1785 15.4233 22.0309C16.1368 21.8384 16.7307 21.3864 17.0957 20.7586L19.0577 17.3829L22.5608 17.6251L31.8891 26.72C32.3578 27.1776 32.3578 27.9217 31.8888 28.3791ZM32.2138 24.8737L23.4629 16.3418C23.4464 16.3255 23.429 16.31 23.411 16.2954C23.285 16.1931 23.1287 16.1312 22.9639 16.1199L18.6747 15.8232C18.378 15.8033 18.0832 15.9571 17.9368 16.2091L15.7309 20.0046C15.5726 20.2772 15.3147 20.4733 15.0049 20.5569C14.6955 20.6405 14.3708 20.6012 14.0909 20.4468C13.8114 20.2924 13.6103 20.0409 13.5245 19.7389C13.4388 19.4369 13.4787 19.1203 13.6374 18.8478L16.5821 13.7808L17.7753 13.4461C17.7833 13.4437 17.7909 13.4408 17.7988 13.4384L22.2522 12.1845H27.6331L34.3506 20.5105L32.2138 24.8737ZM35.3782 19.3102L29.166 11.6064L32.3365 9.64049L38.1412 16.992L35.3782 19.3102Z" stroke="#5D3DE3" stroke-width="0.2" mask="url(#path-1-outside-1)"/>
<path d="M24.233 9.26923C24.4462 9.26923 24.6597 9.18994 24.8227 9.03098L30.1804 3.80725C30.5069 3.48889 30.5069 2.97243 30.1804 2.65407C29.8546 2.3364 29.3271 2.3364 29.0013 2.65407L23.6436 7.8778C23.3171 8.19616 23.3171 8.71262 23.6436 9.03098C23.8067 9.18993 24.0202 9.26923 24.233 9.26923Z" fill="#5D3DE3" stroke="#5D3DE3" stroke-width="0.1"/>
<path d="M15.1773 9.03098C15.3404 9.18994 15.5539 9.26923 15.767 9.26923C15.9799 9.26923 16.1934 9.18993 16.3564 9.03098C16.683 8.71262 16.683 8.19616 16.3564 7.8778L10.9988 2.65407C10.673 2.3364 10.1455 2.3364 9.81965 2.65407C9.49312 2.97243 9.49312 3.48889 9.81965 3.80725L15.1773 9.03098Z" fill="#5D3DE3" stroke="#5D3DE3" stroke-width="0.1"/>
<path d="M19.9999 9.26914C20.4593 9.26914 20.8342 8.90546 20.8342 8.45445V4.13139C20.8342 3.68038 20.4593 3.3167 19.9999 3.3167C19.5404 3.3167 19.1656 3.68038 19.1656 4.13139V8.45445C19.1656 8.90546 19.5404 9.26914 19.9999 9.26914Z" fill="#5D3DE3" stroke="#5D3DE3" stroke-width="0.1"/>
<path d="M20.7937 1.31661L20.7937 1.31668C20.6869 1.63698 20.3845 1.86306 20.0411 1.88044M20.7937 1.31661L19.2302 1.37929C19.3631 1.69332 19.6931 1.89814 20.0411 1.88044M20.7937 1.31661C20.901 0.993315 20.7844 0.626004 20.5072 0.420456M20.7937 1.31661L20.5072 0.420456M20.0411 1.88044L20.0385 1.8305L20.0411 1.88043C20.0411 1.88043 20.0411 1.88044 20.0411 1.88044ZM20.5072 0.420456C20.2252 0.210974 19.8326 0.199378 19.5378 0.389403L20.5072 0.420456ZM19.5378 0.389411C19.208 0.601926 19.08 1.0248 19.2302 1.37926L19.5378 0.389411Z" fill="#5D3DE3" stroke="#5D3DE3" stroke-width="0.1"/>
</g>
<defs>
<clipPath id="clip0">
<rect width="40" height="39" fill="white"/>
</clipPath>
</defs>
</svg>
