<svg width="39" height="39" viewBox="0 0 39 39" fill="none" xmlns="http://www.w3.org/2000/svg">
<g clip-path="url(#clip0)">
<mask id="path-1-outside-1" maskUnits="userSpaceOnUse" x="23.5842" y="23.3486" width="12" height="16" fill="black">
<rect fill="white" x="23.5842" y="23.3486" width="12" height="16"/>
<path d="M32.3082 32.8585L31.4489 32.5692C31.3222 32.527 31.207 32.4538 31.1133 32.355C30.9642 32.1997 30.8821 31.9941 30.8821 31.776V30.892L31.1383 30.7358C31.6718 30.4105 32.003 29.8199 32.003 29.1948V27.6743C32.003 27.6722 32.003 27.6704 32.003 27.6687V26.341C32.003 25.2425 31.1103 24.3486 30.013 24.3486H28.2571C27.1598 24.3486 26.2672 25.2425 26.2672 26.341V27.4842V27.486V29.1948C26.2672 29.8199 26.5986 30.4105 27.1321 30.7358L27.3889 30.8923V31.776C27.3889 32.0078 27.291 32.2321 27.1217 32.3904C27.0348 32.4714 26.9331 32.5318 26.8197 32.5698L25.9616 32.8585C25.515 33.0087 25.1168 33.2491 24.777 33.5723C24.7738 33.5752 24.7708 33.5782 24.7675 33.5812C24.7642 33.5842 24.761 33.5872 24.7577 33.5901C24.7544 33.5934 24.7517 33.5967 24.7485 33.5999C24.7404 33.6083 24.7324 33.6166 24.7247 33.6255C24.7193 33.6315 24.7143 33.6377 24.7092 33.644C24.7029 33.652 24.6967 33.66 24.6908 33.6684C24.6854 33.6761 24.68 33.6839 24.675 33.6919C24.6705 33.699 24.6658 33.7062 24.6616 33.7136C24.6562 33.7228 24.6512 33.7321 24.6464 33.7413C24.6431 33.7481 24.6396 33.755 24.6366 33.7618C24.6321 33.7719 24.6277 33.7817 24.6238 33.7919C24.6208 33.799 24.6184 33.8061 24.6158 33.8133C24.6125 33.8231 24.6092 33.8329 24.6062 33.8433C24.6042 33.8511 24.6021 33.8591 24.6 33.8671C24.5979 33.8767 24.5958 33.8859 24.594 33.8951C24.5923 33.9043 24.5908 33.9139 24.5896 33.9231C24.5884 33.9314 24.5875 33.9397 24.5866 33.9481C24.5857 33.9585 24.5851 33.9689 24.5845 33.9793C24.5842 33.9868 24.5842 33.9945 24.5842 34.0019C24.5842 34.0129 24.5845 34.0237 24.5851 34.0347C24.5854 34.0421 24.586 34.0498 24.5869 34.0576C24.5878 34.0677 24.5893 34.0781 24.5908 34.0885C24.5923 34.0971 24.5938 34.1055 24.5955 34.1141C24.5973 34.123 24.5994 34.1323 24.6015 34.1415C24.6042 34.1513 24.6071 34.1611 24.6101 34.1709C24.6125 34.1784 24.6149 34.1861 24.6176 34.1936C24.6214 34.2046 24.6259 34.2156 24.6306 34.2269C24.6324 34.2307 24.6336 34.2349 24.6354 34.2388C24.7973 34.5917 24.8791 34.9684 24.8791 35.3587V38.3C24.8791 38.6157 25.135 38.8713 25.4504 38.8713C25.7658 38.8713 26.0217 38.6157 26.0217 38.3V35.3587C26.0217 34.9547 25.9592 34.5607 25.8366 34.1822C25.9875 34.0814 26.1508 34.0004 26.3264 33.9412L27.1839 33.6529C27.3383 33.6008 27.4835 33.5309 27.6189 33.4443C27.8561 33.5137 28.0965 33.566 28.3399 33.5999L27.4797 36.6412C27.4264 36.8298 27.4734 37.0321 27.604 37.1779L28.6544 38.3494C28.7594 38.4666 28.9082 38.5353 29.0656 38.5392H29.0799C29.2319 38.5392 29.378 38.4785 29.4854 38.3702L30.647 37.1991C30.7961 37.0485 30.8497 36.828 30.7866 36.626L29.8347 33.5827C30.0885 33.5413 30.3388 33.4797 30.5848 33.3997C30.739 33.5071 30.908 33.5934 31.0862 33.6529L31.9434 33.9412C32.7885 34.226 33.3562 35.0178 33.3562 35.911V38.3C33.3562 38.6157 33.6118 38.8713 33.9275 38.8713C34.2429 38.8713 34.4988 38.6157 34.4988 38.3V35.911C34.4988 34.5268 33.6186 33.3 32.3082 32.8585ZM29.1138 32.5047C28.8769 32.5094 28.6419 32.4928 28.4104 32.4553C28.4895 32.2393 28.5315 32.0096 28.5315 31.776V31.5451C28.727 31.615 28.9311 31.6501 29.1352 31.6501C29.3396 31.6501 29.544 31.6147 29.7395 31.5448V31.776C29.7395 31.9977 29.7758 32.214 29.8454 32.4181C29.605 32.4699 29.3604 32.499 29.1138 32.5047ZM27.41 27.8397L28.4383 27.303L30.8604 28.0828V29.1945C30.8604 29.4242 30.739 29.6411 30.5432 29.7604L29.478 30.41C29.2664 30.5388 29.004 30.5388 28.7924 30.41L27.7272 29.7604C27.5314 29.6411 27.41 29.4242 27.41 29.1945V27.8397ZM28.2571 25.4912H30.0133C30.4804 25.4912 30.8604 25.8724 30.8604 26.341V26.8822L28.5609 26.1419C28.4151 26.0949 28.2568 26.1086 28.1212 26.1794L27.41 26.5508V26.341C27.41 25.8724 27.79 25.4912 28.2571 25.4912ZM29.1007 37.1357L28.6648 36.6495L29.1072 35.085L29.5934 36.6388L29.1007 37.1357Z"/>
</mask>
<path d="M32.3082 32.8585L31.4489 32.5692C31.3222 32.527 31.207 32.4538 31.1133 32.355C30.9642 32.1997 30.8821 31.9941 30.8821 31.776V30.892L31.1383 30.7358C31.6718 30.4105 32.003 29.8199 32.003 29.1948V27.6743C32.003 27.6722 32.003 27.6704 32.003 27.6687V26.341C32.003 25.2425 31.1103 24.3486 30.013 24.3486H28.2571C27.1598 24.3486 26.2672 25.2425 26.2672 26.341V27.4842V27.486V29.1948C26.2672 29.8199 26.5986 30.4105 27.1321 30.7358L27.3889 30.8923V31.776C27.3889 32.0078 27.291 32.2321 27.1217 32.3904C27.0348 32.4714 26.9331 32.5318 26.8197 32.5698L25.9616 32.8585C25.515 33.0087 25.1168 33.2491 24.777 33.5723C24.7738 33.5752 24.7708 33.5782 24.7675 33.5812C24.7642 33.5842 24.761 33.5872 24.7577 33.5901C24.7544 33.5934 24.7517 33.5967 24.7485 33.5999C24.7404 33.6083 24.7324 33.6166 24.7247 33.6255C24.7193 33.6315 24.7143 33.6377 24.7092 33.644C24.7029 33.652 24.6967 33.66 24.6908 33.6684C24.6854 33.6761 24.68 33.6839 24.675 33.6919C24.6705 33.699 24.6658 33.7062 24.6616 33.7136C24.6562 33.7228 24.6512 33.7321 24.6464 33.7413C24.6431 33.7481 24.6396 33.755 24.6366 33.7618C24.6321 33.7719 24.6277 33.7817 24.6238 33.7919C24.6208 33.799 24.6184 33.8061 24.6158 33.8133C24.6125 33.8231 24.6092 33.8329 24.6062 33.8433C24.6042 33.8511 24.6021 33.8591 24.6 33.8671C24.5979 33.8767 24.5958 33.8859 24.594 33.8951C24.5923 33.9043 24.5908 33.9139 24.5896 33.9231C24.5884 33.9314 24.5875 33.9397 24.5866 33.9481C24.5857 33.9585 24.5851 33.9689 24.5845 33.9793C24.5842 33.9868 24.5842 33.9945 24.5842 34.0019C24.5842 34.0129 24.5845 34.0237 24.5851 34.0347C24.5854 34.0421 24.586 34.0498 24.5869 34.0576C24.5878 34.0677 24.5893 34.0781 24.5908 34.0885C24.5923 34.0971 24.5938 34.1055 24.5955 34.1141C24.5973 34.123 24.5994 34.1323 24.6015 34.1415C24.6042 34.1513 24.6071 34.1611 24.6101 34.1709C24.6125 34.1784 24.6149 34.1861 24.6176 34.1936C24.6214 34.2046 24.6259 34.2156 24.6306 34.2269C24.6324 34.2307 24.6336 34.2349 24.6354 34.2388C24.7973 34.5917 24.8791 34.9684 24.8791 35.3587V38.3C24.8791 38.6157 25.135 38.8713 25.4504 38.8713C25.7658 38.8713 26.0217 38.6157 26.0217 38.3V35.3587C26.0217 34.9547 25.9592 34.5607 25.8366 34.1822C25.9875 34.0814 26.1508 34.0004 26.3264 33.9412L27.1839 33.6529C27.3383 33.6008 27.4835 33.5309 27.6189 33.4443C27.8561 33.5137 28.0965 33.566 28.3399 33.5999L27.4797 36.6412C27.4264 36.8298 27.4734 37.0321 27.604 37.1779L28.6544 38.3494C28.7594 38.4666 28.9082 38.5353 29.0656 38.5392H29.0799C29.2319 38.5392 29.378 38.4785 29.4854 38.3702L30.647 37.1991C30.7961 37.0485 30.8497 36.828 30.7866 36.626L29.8347 33.5827C30.0885 33.5413 30.3388 33.4797 30.5848 33.3997C30.739 33.5071 30.908 33.5934 31.0862 33.6529L31.9434 33.9412C32.7885 34.226 33.3562 35.0178 33.3562 35.911V38.3C33.3562 38.6157 33.6118 38.8713 33.9275 38.8713C34.2429 38.8713 34.4988 38.6157 34.4988 38.3V35.911C34.4988 34.5268 33.6186 33.3 32.3082 32.8585ZM29.1138 32.5047C28.8769 32.5094 28.6419 32.4928 28.4104 32.4553C28.4895 32.2393 28.5315 32.0096 28.5315 31.776V31.5451C28.727 31.615 28.9311 31.6501 29.1352 31.6501C29.3396 31.6501 29.544 31.6147 29.7395 31.5448V31.776C29.7395 31.9977 29.7758 32.214 29.8454 32.4181C29.605 32.4699 29.3604 32.499 29.1138 32.5047ZM27.41 27.8397L28.4383 27.303L30.8604 28.0828V29.1945C30.8604 29.4242 30.739 29.6411 30.5432 29.7604L29.478 30.41C29.2664 30.5388 29.004 30.5388 28.7924 30.41L27.7272 29.7604C27.5314 29.6411 27.41 29.4242 27.41 29.1945V27.8397ZM28.2571 25.4912H30.0133C30.4804 25.4912 30.8604 25.8724 30.8604 26.341V26.8822L28.5609 26.1419C28.4151 26.0949 28.2568 26.1086 28.1212 26.1794L27.41 26.5508V26.341C27.41 25.8724 27.79 25.4912 28.2571 25.4912ZM29.1007 37.1357L28.6648 36.6495L29.1072 35.085L29.5934 36.6388L29.1007 37.1357Z" fill="#5D3DE3"/>
<path d="M32.3082 32.8585L31.4489 32.5692C31.3222 32.527 31.207 32.4538 31.1133 32.355C30.9642 32.1997 30.8821 31.9941 30.8821 31.776V30.892L31.1383 30.7358C31.6718 30.4105 32.003 29.8199 32.003 29.1948V27.6743C32.003 27.6722 32.003 27.6704 32.003 27.6687V26.341C32.003 25.2425 31.1103 24.3486 30.013 24.3486H28.2571C27.1598 24.3486 26.2672 25.2425 26.2672 26.341V27.4842V27.486V29.1948C26.2672 29.8199 26.5986 30.4105 27.1321 30.7358L27.3889 30.8923V31.776C27.3889 32.0078 27.291 32.2321 27.1217 32.3904C27.0348 32.4714 26.9331 32.5318 26.8197 32.5698L25.9616 32.8585C25.515 33.0087 25.1168 33.2491 24.777 33.5723C24.7738 33.5752 24.7708 33.5782 24.7675 33.5812C24.7642 33.5842 24.761 33.5872 24.7577 33.5901C24.7544 33.5934 24.7517 33.5967 24.7485 33.5999C24.7404 33.6083 24.7324 33.6166 24.7247 33.6255C24.7193 33.6315 24.7143 33.6377 24.7092 33.644C24.7029 33.652 24.6967 33.66 24.6908 33.6684C24.6854 33.6761 24.68 33.6839 24.675 33.6919C24.6705 33.699 24.6658 33.7062 24.6616 33.7136C24.6562 33.7228 24.6512 33.7321 24.6464 33.7413C24.6431 33.7481 24.6396 33.755 24.6366 33.7618C24.6321 33.7719 24.6277 33.7817 24.6238 33.7919C24.6208 33.799 24.6184 33.8061 24.6158 33.8133C24.6125 33.8231 24.6092 33.8329 24.6062 33.8433C24.6042 33.8511 24.6021 33.8591 24.6 33.8671C24.5979 33.8767 24.5958 33.8859 24.594 33.8951C24.5923 33.9043 24.5908 33.9139 24.5896 33.9231C24.5884 33.9314 24.5875 33.9397 24.5866 33.9481C24.5857 33.9585 24.5851 33.9689 24.5845 33.9793C24.5842 33.9868 24.5842 33.9945 24.5842 34.0019C24.5842 34.0129 24.5845 34.0237 24.5851 34.0347C24.5854 34.0421 24.586 34.0498 24.5869 34.0576C24.5878 34.0677 24.5893 34.0781 24.5908 34.0885C24.5923 34.0971 24.5938 34.1055 24.5955 34.1141C24.5973 34.123 24.5994 34.1323 24.6015 34.1415C24.6042 34.1513 24.6071 34.1611 24.6101 34.1709C24.6125 34.1784 24.6149 34.1861 24.6176 34.1936C24.6214 34.2046 24.6259 34.2156 24.6306 34.2269C24.6324 34.2307 24.6336 34.2349 24.6354 34.2388C24.7973 34.5917 24.8791 34.9684 24.8791 35.3587V38.3C24.8791 38.6157 25.135 38.8713 25.4504 38.8713C25.7658 38.8713 26.0217 38.6157 26.0217 38.3V35.3587C26.0217 34.9547 25.9592 34.5607 25.8366 34.1822C25.9875 34.0814 26.1508 34.0004 26.3264 33.9412L27.1839 33.6529C27.3383 33.6008 27.4835 33.5309 27.6189 33.4443C27.8561 33.5137 28.0965 33.566 28.3399 33.5999L27.4797 36.6412C27.4264 36.8298 27.4734 37.0321 27.604 37.1779L28.6544 38.3494C28.7594 38.4666 28.9082 38.5353 29.0656 38.5392H29.0799C29.2319 38.5392 29.378 38.4785 29.4854 38.3702L30.647 37.1991C30.7961 37.0485 30.8497 36.828 30.7866 36.626L29.8347 33.5827C30.0885 33.5413 30.3388 33.4797 30.5848 33.3997C30.739 33.5071 30.908 33.5934 31.0862 33.6529L31.9434 33.9412C32.7885 34.226 33.3562 35.0178 33.3562 35.911V38.3C33.3562 38.6157 33.6118 38.8713 33.9275 38.8713C34.2429 38.8713 34.4988 38.6157 34.4988 38.3V35.911C34.4988 34.5268 33.6186 33.3 32.3082 32.8585ZM29.1138 32.5047C28.8769 32.5094 28.6419 32.4928 28.4104 32.4553C28.4895 32.2393 28.5315 32.0096 28.5315 31.776V31.5451C28.727 31.615 28.9311 31.6501 29.1352 31.6501C29.3396 31.6501 29.544 31.6147 29.7395 31.5448V31.776C29.7395 31.9977 29.7758 32.214 29.8454 32.4181C29.605 32.4699 29.3604 32.499 29.1138 32.5047ZM27.41 27.8397L28.4383 27.303L30.8604 28.0828V29.1945C30.8604 29.4242 30.739 29.6411 30.5432 29.7604L29.478 30.41C29.2664 30.5388 29.004 30.5388 28.7924 30.41L27.7272 29.7604C27.5314 29.6411 27.41 29.4242 27.41 29.1945V27.8397ZM28.2571 25.4912H30.0133C30.4804 25.4912 30.8604 25.8724 30.8604 26.341V26.8822L28.5609 26.1419C28.4151 26.0949 28.2568 26.1086 28.1212 26.1794L27.41 26.5508V26.341C27.41 25.8724 27.79 25.4912 28.2571 25.4912ZM29.1007 37.1357L28.6648 36.6495L29.1072 35.085L29.5934 36.6388L29.1007 37.1357Z" stroke="#5D3DE3" stroke-width="0.4" mask="url(#path-1-outside-1)"/>
<mask id="path-2-outside-2" maskUnits="userSpaceOnUse" x="3.60205" y="20.2561" width="21" height="19" fill="black">
<rect fill="white" x="3.60205" y="20.2561" width="21" height="19"/>
<path d="M23.4153 31.7265L22.3584 31.3703C22.1811 31.3108 22.0195 31.2084 21.8913 31.0748C21.8913 31.0745 21.891 31.0742 21.8907 31.0739C21.6824 30.8552 21.5679 30.569 21.5679 30.2673V29.106L21.9472 28.8748C22.5649 28.4981 22.9488 27.8143 22.9488 27.0901V25.2164C22.9488 25.2144 22.9488 25.2126 22.9488 25.2108V23.577C22.9488 22.2972 21.9088 21.2561 20.6309 21.2561H18.4692C17.1912 21.2561 16.1516 22.2972 16.1516 23.577V24.9864V24.9882V27.0901C16.1516 27.8143 16.5352 28.4981 17.1529 28.8748L17.5325 29.1063V30.2673C17.5325 30.5898 17.3968 30.9017 17.1621 31.1207C17.0395 31.2343 16.8982 31.3182 16.7411 31.3706L15.6854 31.7268C14.9111 31.9877 14.2429 32.4938 13.7775 33.1544C13.5778 33.0336 13.3645 32.9345 13.1387 32.8583L12.279 32.5691C12.1508 32.5266 12.0383 32.4552 11.9437 32.3558C11.7943 32.1993 11.7119 31.9937 11.7119 31.7759V30.8921L11.9684 30.7356C12.5019 30.4104 12.8331 29.8198 12.8331 29.1946V27.6742C12.8331 27.6721 12.8331 27.6703 12.8331 27.6685V26.3409C12.8331 25.2423 11.9404 24.3485 10.8431 24.3485H9.08727C7.98992 24.3485 7.09728 25.2423 7.09728 26.3409V27.484V27.4858V29.1946C7.09728 29.8198 7.42874 30.4104 7.96224 30.7356L8.21873 30.8921V31.7759C8.21873 32.0082 8.12113 32.2323 7.95153 32.3903C7.86435 32.4715 7.76289 32.5319 7.65012 32.5697L6.79229 32.8583C5.48219 33.2999 4.60205 34.5264 4.60205 35.9109V38.2999C4.60205 38.6153 4.85764 38.8711 5.17334 38.8711C5.48874 38.8711 5.74463 38.6153 5.74463 38.2999V35.9109C5.74463 35.0173 6.31235 34.2259 7.15679 33.9411L8.01431 33.6528C8.16874 33.6007 8.31365 33.5305 8.44903 33.4439C8.68617 33.5135 8.92659 33.5659 9.16998 33.5995L8.30978 36.641C8.25652 36.8294 8.30353 37.032 8.43415 37.1778L9.48449 38.3493C9.58953 38.4665 9.7383 38.5349 9.8954 38.5391H9.90969C10.062 38.5391 10.2081 38.4784 10.3155 38.3701L11.4769 37.1986C11.6259 37.0484 11.6798 36.8279 11.6164 36.6259L10.6646 33.5826C10.9184 33.5412 11.1689 33.4796 11.415 33.3993C11.5697 33.5073 11.7387 33.5936 11.9166 33.6525L12.7739 33.9411C12.9497 34.0003 13.1134 34.0812 13.2639 34.1821C13.1416 34.5606 13.0792 34.9545 13.0792 35.3583V38.2999C13.0792 38.6153 13.3347 38.8711 13.6504 38.8711C13.9658 38.8711 14.2217 38.6153 14.2217 38.2999V35.3583C14.2217 34.9682 14.3036 34.5915 14.4654 34.2381C14.7725 33.5662 15.35 33.0452 16.0505 32.8092L17.1047 32.4537C17.3034 32.3873 17.4897 32.2948 17.6623 32.1778C18.0151 32.2853 18.3752 32.3593 18.74 32.4007L17.6391 36.2935C17.5858 36.4818 17.6325 36.6845 17.7634 36.8303L19.0563 38.2725C19.1613 38.3894 19.3101 38.4582 19.4675 38.462C19.4722 38.4623 19.477 38.4623 19.4818 38.4623C19.6338 38.4623 19.7799 38.4016 19.8873 38.2933L21.3173 36.8511C21.4664 36.7008 21.5199 36.4804 21.4569 36.2783L20.2387 32.3831C20.6181 32.3314 20.9921 32.2439 21.3575 32.1204C21.5509 32.2635 21.766 32.3769 21.9942 32.4534L23.0499 32.8092C23.1106 32.8295 23.1722 32.8393 23.2326 32.8393C23.471 32.8393 23.6935 32.6887 23.7739 32.4504C23.875 32.1514 23.7144 31.8273 23.4153 31.7265ZM9.9439 32.5045C9.70706 32.5093 9.47199 32.4926 9.2405 32.4552C9.31935 32.2391 9.36131 32.0094 9.36131 31.7759V31.5447C9.5568 31.6149 9.76121 31.65 9.96533 31.65C10.1697 31.65 10.3739 31.6149 10.5693 31.5447V31.7759C10.5693 31.9972 10.6059 32.2138 10.6753 32.418C10.4352 32.4697 10.1906 32.4989 9.9439 32.5045ZM8.24015 27.8396L9.26847 27.3028L11.6908 28.0827V29.1943C11.6908 29.424 11.5691 29.641 11.3736 29.7603L10.3081 30.4098C10.0968 30.5387 9.83411 30.5387 9.62285 30.4098L8.55734 29.7603C8.36185 29.641 8.24015 29.424 8.24015 29.1943V27.8396ZM9.08756 25.4911H10.8434C11.3105 25.4911 11.6908 25.8722 11.6908 26.3409V26.8821L9.39106 26.1418C9.24556 26.0948 9.08697 26.1085 8.95159 26.1793L8.24015 26.5506V26.3409C8.24015 25.8722 8.62042 25.4911 9.08756 25.4911ZM9.93081 37.1356L9.49491 36.6494L9.93765 35.0849L10.4235 36.6387L9.93081 37.1356ZM19.5264 31.2968C19.1723 31.3042 18.8206 31.2727 18.4752 31.2046C18.6055 30.9118 18.6754 30.5925 18.6754 30.2673V29.7859C18.9533 29.915 19.2518 29.9805 19.5502 29.9805C19.8489 29.9805 20.1471 29.9147 20.4253 29.7856V30.2673C20.4253 30.5753 20.4863 30.8752 20.6017 31.1528C20.2494 31.2406 19.89 31.2891 19.5264 31.2968ZM18.4692 22.3987H20.6312C21.2789 22.3987 21.8062 22.9271 21.8062 23.577V24.4247L18.8025 23.4574C18.657 23.4106 18.4987 23.424 18.363 23.4948L17.2942 24.053V23.577C17.2942 22.9271 17.8214 22.3987 18.4692 22.3987ZM17.2942 25.342L18.6799 24.6184L21.8062 25.625V27.0901C21.8062 27.4186 21.6324 27.7286 21.3524 27.8991L20.0408 28.6989C19.7382 28.8834 19.3621 28.8834 19.0595 28.6989L17.748 27.8991C17.4683 27.7286 17.2942 27.4183 17.2942 27.0901V25.342ZM19.5029 37.0588L18.8242 36.3018L19.5094 33.8792L20.264 36.2911L19.5029 37.0588Z"/>
</mask>
<path d="M23.4153 31.7265L22.3584 31.3703C22.1811 31.3108 22.0195 31.2084 21.8913 31.0748C21.8913 31.0745 21.891 31.0742 21.8907 31.0739C21.6824 30.8552 21.5679 30.569 21.5679 30.2673V29.106L21.9472 28.8748C22.5649 28.4981 22.9488 27.8143 22.9488 27.0901V25.2164C22.9488 25.2144 22.9488 25.2126 22.9488 25.2108V23.577C22.9488 22.2972 21.9088 21.2561 20.6309 21.2561H18.4692C17.1912 21.2561 16.1516 22.2972 16.1516 23.577V24.9864V24.9882V27.0901C16.1516 27.8143 16.5352 28.4981 17.1529 28.8748L17.5325 29.1063V30.2673C17.5325 30.5898 17.3968 30.9017 17.1621 31.1207C17.0395 31.2343 16.8982 31.3182 16.7411 31.3706L15.6854 31.7268C14.9111 31.9877 14.2429 32.4938 13.7775 33.1544C13.5778 33.0336 13.3645 32.9345 13.1387 32.8583L12.279 32.5691C12.1508 32.5266 12.0383 32.4552 11.9437 32.3558C11.7943 32.1993 11.7119 31.9937 11.7119 31.7759V30.8921L11.9684 30.7356C12.5019 30.4104 12.8331 29.8198 12.8331 29.1946V27.6742C12.8331 27.6721 12.8331 27.6703 12.8331 27.6685V26.3409C12.8331 25.2423 11.9404 24.3485 10.8431 24.3485H9.08727C7.98992 24.3485 7.09728 25.2423 7.09728 26.3409V27.484V27.4858V29.1946C7.09728 29.8198 7.42874 30.4104 7.96224 30.7356L8.21873 30.8921V31.7759C8.21873 32.0082 8.12113 32.2323 7.95153 32.3903C7.86435 32.4715 7.76289 32.5319 7.65012 32.5697L6.79229 32.8583C5.48219 33.2999 4.60205 34.5264 4.60205 35.9109V38.2999C4.60205 38.6153 4.85764 38.8711 5.17334 38.8711C5.48874 38.8711 5.74463 38.6153 5.74463 38.2999V35.9109C5.74463 35.0173 6.31235 34.2259 7.15679 33.9411L8.01431 33.6528C8.16874 33.6007 8.31365 33.5305 8.44903 33.4439C8.68617 33.5135 8.92659 33.5659 9.16998 33.5995L8.30978 36.641C8.25652 36.8294 8.30353 37.032 8.43415 37.1778L9.48449 38.3493C9.58953 38.4665 9.7383 38.5349 9.8954 38.5391H9.90969C10.062 38.5391 10.2081 38.4784 10.3155 38.3701L11.4769 37.1986C11.6259 37.0484 11.6798 36.8279 11.6164 36.6259L10.6646 33.5826C10.9184 33.5412 11.1689 33.4796 11.415 33.3993C11.5697 33.5073 11.7387 33.5936 11.9166 33.6525L12.7739 33.9411C12.9497 34.0003 13.1134 34.0812 13.2639 34.1821C13.1416 34.5606 13.0792 34.9545 13.0792 35.3583V38.2999C13.0792 38.6153 13.3347 38.8711 13.6504 38.8711C13.9658 38.8711 14.2217 38.6153 14.2217 38.2999V35.3583C14.2217 34.9682 14.3036 34.5915 14.4654 34.2381C14.7725 33.5662 15.35 33.0452 16.0505 32.8092L17.1047 32.4537C17.3034 32.3873 17.4897 32.2948 17.6623 32.1778C18.0151 32.2853 18.3752 32.3593 18.74 32.4007L17.6391 36.2935C17.5858 36.4818 17.6325 36.6845 17.7634 36.8303L19.0563 38.2725C19.1613 38.3894 19.3101 38.4582 19.4675 38.462C19.4722 38.4623 19.477 38.4623 19.4818 38.4623C19.6338 38.4623 19.7799 38.4016 19.8873 38.2933L21.3173 36.8511C21.4664 36.7008 21.5199 36.4804 21.4569 36.2783L20.2387 32.3831C20.6181 32.3314 20.9921 32.2439 21.3575 32.1204C21.5509 32.2635 21.766 32.3769 21.9942 32.4534L23.0499 32.8092C23.1106 32.8295 23.1722 32.8393 23.2326 32.8393C23.471 32.8393 23.6935 32.6887 23.7739 32.4504C23.875 32.1514 23.7144 31.8273 23.4153 31.7265ZM9.9439 32.5045C9.70706 32.5093 9.47199 32.4926 9.2405 32.4552C9.31935 32.2391 9.36131 32.0094 9.36131 31.7759V31.5447C9.5568 31.6149 9.76121 31.65 9.96533 31.65C10.1697 31.65 10.3739 31.6149 10.5693 31.5447V31.7759C10.5693 31.9972 10.6059 32.2138 10.6753 32.418C10.4352 32.4697 10.1906 32.4989 9.9439 32.5045ZM8.24015 27.8396L9.26847 27.3028L11.6908 28.0827V29.1943C11.6908 29.424 11.5691 29.641 11.3736 29.7603L10.3081 30.4098C10.0968 30.5387 9.83411 30.5387 9.62285 30.4098L8.55734 29.7603C8.36185 29.641 8.24015 29.424 8.24015 29.1943V27.8396ZM9.08756 25.4911H10.8434C11.3105 25.4911 11.6908 25.8722 11.6908 26.3409V26.8821L9.39106 26.1418C9.24556 26.0948 9.08697 26.1085 8.95159 26.1793L8.24015 26.5506V26.3409C8.24015 25.8722 8.62042 25.4911 9.08756 25.4911ZM9.93081 37.1356L9.49491 36.6494L9.93765 35.0849L10.4235 36.6387L9.93081 37.1356ZM19.5264 31.2968C19.1723 31.3042 18.8206 31.2727 18.4752 31.2046C18.6055 30.9118 18.6754 30.5925 18.6754 30.2673V29.7859C18.9533 29.915 19.2518 29.9805 19.5502 29.9805C19.8489 29.9805 20.1471 29.9147 20.4253 29.7856V30.2673C20.4253 30.5753 20.4863 30.8752 20.6017 31.1528C20.2494 31.2406 19.89 31.2891 19.5264 31.2968ZM18.4692 22.3987H20.6312C21.2789 22.3987 21.8062 22.9271 21.8062 23.577V24.4247L18.8025 23.4574C18.657 23.4106 18.4987 23.424 18.363 23.4948L17.2942 24.053V23.577C17.2942 22.9271 17.8214 22.3987 18.4692 22.3987ZM17.2942 25.342L18.6799 24.6184L21.8062 25.625V27.0901C21.8062 27.4186 21.6324 27.7286 21.3524 27.8991L20.0408 28.6989C19.7382 28.8834 19.3621 28.8834 19.0595 28.6989L17.748 27.8991C17.4683 27.7286 17.2942 27.4183 17.2942 27.0901V25.342ZM19.5029 37.0588L18.8242 36.3018L19.5094 33.8792L20.264 36.2911L19.5029 37.0588Z" fill="#5D3DE3"/>
<path d="M23.4153 31.7265L22.3584 31.3703C22.1811 31.3108 22.0195 31.2084 21.8913 31.0748C21.8913 31.0745 21.891 31.0742 21.8907 31.0739C21.6824 30.8552 21.5679 30.569 21.5679 30.2673V29.106L21.9472 28.8748C22.5649 28.4981 22.9488 27.8143 22.9488 27.0901V25.2164C22.9488 25.2144 22.9488 25.2126 22.9488 25.2108V23.577C22.9488 22.2972 21.9088 21.2561 20.6309 21.2561H18.4692C17.1912 21.2561 16.1516 22.2972 16.1516 23.577V24.9864V24.9882V27.0901C16.1516 27.8143 16.5352 28.4981 17.1529 28.8748L17.5325 29.1063V30.2673C17.5325 30.5898 17.3968 30.9017 17.1621 31.1207C17.0395 31.2343 16.8982 31.3182 16.7411 31.3706L15.6854 31.7268C14.9111 31.9877 14.2429 32.4938 13.7775 33.1544C13.5778 33.0336 13.3645 32.9345 13.1387 32.8583L12.279 32.5691C12.1508 32.5266 12.0383 32.4552 11.9437 32.3558C11.7943 32.1993 11.7119 31.9937 11.7119 31.7759V30.8921L11.9684 30.7356C12.5019 30.4104 12.8331 29.8198 12.8331 29.1946V27.6742C12.8331 27.6721 12.8331 27.6703 12.8331 27.6685V26.3409C12.8331 25.2423 11.9404 24.3485 10.8431 24.3485H9.08727C7.98992 24.3485 7.09728 25.2423 7.09728 26.3409V27.484V27.4858V29.1946C7.09728 29.8198 7.42874 30.4104 7.96224 30.7356L8.21873 30.8921V31.7759C8.21873 32.0082 8.12113 32.2323 7.95153 32.3903C7.86435 32.4715 7.76289 32.5319 7.65012 32.5697L6.79229 32.8583C5.48219 33.2999 4.60205 34.5264 4.60205 35.9109V38.2999C4.60205 38.6153 4.85764 38.8711 5.17334 38.8711C5.48874 38.8711 5.74463 38.6153 5.74463 38.2999V35.9109C5.74463 35.0173 6.31235 34.2259 7.15679 33.9411L8.01431 33.6528C8.16874 33.6007 8.31365 33.5305 8.44903 33.4439C8.68617 33.5135 8.92659 33.5659 9.16998 33.5995L8.30978 36.641C8.25652 36.8294 8.30353 37.032 8.43415 37.1778L9.48449 38.3493C9.58953 38.4665 9.7383 38.5349 9.8954 38.5391H9.90969C10.062 38.5391 10.2081 38.4784 10.3155 38.3701L11.4769 37.1986C11.6259 37.0484 11.6798 36.8279 11.6164 36.6259L10.6646 33.5826C10.9184 33.5412 11.1689 33.4796 11.415 33.3993C11.5697 33.5073 11.7387 33.5936 11.9166 33.6525L12.7739 33.9411C12.9497 34.0003 13.1134 34.0812 13.2639 34.1821C13.1416 34.5606 13.0792 34.9545 13.0792 35.3583V38.2999C13.0792 38.6153 13.3347 38.8711 13.6504 38.8711C13.9658 38.8711 14.2217 38.6153 14.2217 38.2999V35.3583C14.2217 34.9682 14.3036 34.5915 14.4654 34.2381C14.7725 33.5662 15.35 33.0452 16.0505 32.8092L17.1047 32.4537C17.3034 32.3873 17.4897 32.2948 17.6623 32.1778C18.0151 32.2853 18.3752 32.3593 18.74 32.4007L17.6391 36.2935C17.5858 36.4818 17.6325 36.6845 17.7634 36.8303L19.0563 38.2725C19.1613 38.3894 19.3101 38.4582 19.4675 38.462C19.4722 38.4623 19.477 38.4623 19.4818 38.4623C19.6338 38.4623 19.7799 38.4016 19.8873 38.2933L21.3173 36.8511C21.4664 36.7008 21.5199 36.4804 21.4569 36.2783L20.2387 32.3831C20.6181 32.3314 20.9921 32.2439 21.3575 32.1204C21.5509 32.2635 21.766 32.3769 21.9942 32.4534L23.0499 32.8092C23.1106 32.8295 23.1722 32.8393 23.2326 32.8393C23.471 32.8393 23.6935 32.6887 23.7739 32.4504C23.875 32.1514 23.7144 31.8273 23.4153 31.7265ZM9.9439 32.5045C9.70706 32.5093 9.47199 32.4926 9.2405 32.4552C9.31935 32.2391 9.36131 32.0094 9.36131 31.7759V31.5447C9.5568 31.6149 9.76121 31.65 9.96533 31.65C10.1697 31.65 10.3739 31.6149 10.5693 31.5447V31.7759C10.5693 31.9972 10.6059 32.2138 10.6753 32.418C10.4352 32.4697 10.1906 32.4989 9.9439 32.5045ZM8.24015 27.8396L9.26847 27.3028L11.6908 28.0827V29.1943C11.6908 29.424 11.5691 29.641 11.3736 29.7603L10.3081 30.4098C10.0968 30.5387 9.83411 30.5387 9.62285 30.4098L8.55734 29.7603C8.36185 29.641 8.24015 29.424 8.24015 29.1943V27.8396ZM9.08756 25.4911H10.8434C11.3105 25.4911 11.6908 25.8722 11.6908 26.3409V26.8821L9.39106 26.1418C9.24556 26.0948 9.08697 26.1085 8.95159 26.1793L8.24015 26.5506V26.3409C8.24015 25.8722 8.62042 25.4911 9.08756 25.4911ZM9.93081 37.1356L9.49491 36.6494L9.93765 35.0849L10.4235 36.6387L9.93081 37.1356ZM19.5264 31.2968C19.1723 31.3042 18.8206 31.2727 18.4752 31.2046C18.6055 30.9118 18.6754 30.5925 18.6754 30.2673V29.7859C18.9533 29.915 19.2518 29.9805 19.5502 29.9805C19.8489 29.9805 20.1471 29.9147 20.4253 29.7856V30.2673C20.4253 30.5753 20.4863 30.8752 20.6017 31.1528C20.2494 31.2406 19.89 31.2891 19.5264 31.2968ZM18.4692 22.3987H20.6312C21.2789 22.3987 21.8062 22.9271 21.8062 23.577V24.4247L18.8025 23.4574C18.657 23.4106 18.4987 23.424 18.363 23.4948L17.2942 24.053V23.577C17.2942 22.9271 17.8214 22.3987 18.4692 22.3987ZM17.2942 25.342L18.6799 24.6184L21.8062 25.625V27.0901C21.8062 27.4186 21.6324 27.7286 21.3524 27.8991L20.0408 28.6989C19.7382 28.8834 19.3621 28.8834 19.0595 28.6989L17.748 27.8991C17.4683 27.7286 17.2942 27.4183 17.2942 27.0901V25.342ZM19.5029 37.0588L18.8242 36.3018L19.5094 33.8792L20.264 36.2911L19.5029 37.0588Z" stroke="#5D3DE3" stroke-width="0.4" mask="url(#path-2-outside-2)"/>
<path d="M38.9035 28.1596L38.9036 28.1596C39.1654 28.4219 39.1654 28.847 38.9032 29.1092L38.9031 29.1092C38.7722 29.2399 38.6004 29.3057 38.4288 29.3057C38.2568 29.3057 38.085 29.2399 37.954 29.1089L38.0247 29.0381L37.954 29.1089L25.2737 16.4259L23.0528 17.8913L23.0528 17.8913C22.8227 18.043 22.5235 18.0389 22.2979 17.8808L20.2609 16.455L18.3858 17.8672L38.9035 28.1596ZM38.9035 28.1596L25.8371 15.0902L25.7664 15.1609M38.9035 28.1596L25.7664 15.1609M25.7664 15.1609L25.8371 15.0902C25.8353 15.0884 25.8335 15.0867 25.8321 15.0855L21.2201 10.4723C21.2201 10.4723 21.2201 10.4723 21.2201 10.4723C20.9253 10.1772 20.5645 9.97159 20.1713 9.86845V6.44577H26.3409C26.719 6.44577 27.0505 6.21687 27.184 5.86311C27.3177 5.50939 27.2205 5.11815 26.9366 4.86836L25.5356 3.63423L26.9366 2.4001C27.2205 2.15031 27.3177 1.75907 27.184 1.40536C27.0506 1.05165 26.719 0.822394 26.3409 0.822394H20.1713V0.723633C20.1713 0.352674 19.8706 0.0523437 19.5 0.0523437C19.1294 0.0523437 18.8287 0.352674 18.8287 0.723633V9.91393C18.4951 10.027 18.1898 10.216 17.9338 10.4723L15.9019 12.5048C15.6397 12.767 15.6397 13.1918 15.9019 13.4541L15.902 13.4541M25.7664 15.1609L15.902 13.4541M15.902 13.4541C16.1641 13.7159 16.5893 13.7164 16.8513 13.4537L18.8831 11.4215L18.8832 11.4215C19.0685 11.2358 19.3147 11.1339 19.5768 11.1339C19.8392 11.1339 20.0851 11.2358 20.2708 11.4215L24.3048 15.4567M15.902 13.4541L24.3048 15.4567M24.3048 15.4567L22.6944 16.5191L20.6316 15.0754C20.3934 14.9086 20.0749 14.9142 19.8428 15.089L19.9029 15.1689L19.8428 15.089L17.9588 16.5079L16.1558 15.3041L16.1557 15.3041C15.9733 15.1825 15.7429 15.1573 15.5384 15.2374L14.7663 15.5391L15.04 15.2652C15.04 15.2652 15.04 15.2652 15.04 15.2652C15.3022 15.003 15.3022 14.5782 15.04 14.316L15.04 14.3159C14.7778 14.0541 14.3527 14.054 14.0908 14.316L14.0907 14.316L11.5605 16.8471C11.5575 16.8498 11.5547 16.8526 11.552 16.8556L0.0965476 28.3134C-0.165699 28.5757 -0.165333 29.0008 0.0965476 29.2627C0.22769 29.3938 0.399876 29.4592 0.571326 29.4592C0.743102 29.4592 0.914981 29.3938 1.04611 29.2627L0.975631 29.1922L1.04611 29.2627L12.4011 17.905L15.7013 16.6152L17.6092 17.8892L17.6093 17.8893C17.8466 18.0476 18.1581 18.0389 18.3858 17.8672L24.3048 15.4567ZM25.8292 15.083C25.8291 15.0829 25.8291 15.0829 25.8291 15.0829L25.829 15.0829C25.8288 15.0827 25.8289 15.0827 25.8292 15.083ZM24.272 4.31061L24.2721 4.31062L25.1721 5.10319H20.1713V2.16497H25.1722L24.272 2.95785L24.3381 3.03289L24.272 2.95786C24.0779 3.12894 23.9668 3.37559 23.9668 3.63423C23.9668 3.89287 24.0779 4.13952 24.272 4.31061Z" fill="#5D3DE3" stroke="#5D3DE3" stroke-width="0.2"/>
</g>
<defs>
<clipPath id="clip0">
<rect width="39" height="39" fill="white"/>
</clipPath>
</defs>
</svg>
