<svg width="32" height="32" viewBox="0 0 32 32" fill="none" xmlns="http://www.w3.org/2000/svg">
<path d="M22.4 3.19971H9.59995C6.08027 3.19971 3.19995 6.08003 3.19995 9.59971V22.4003C3.19995 25.9191 6.08027 28.8003 9.59995 28.8003H22.4C25.9196 28.8003 28.7999 25.9191 28.7999 22.4003V9.59971C28.7999 6.08003 25.9196 3.19971 22.4 3.19971ZM26.6665 22.4003C26.6665 24.7523 24.7532 26.6669 22.4 26.6669H9.59995C7.24763 26.6669 5.33339 24.7523 5.33339 22.4003V9.59971C5.33339 7.24707 7.24763 5.33315 9.59995 5.33315H22.4C24.7532 5.33315 26.6665 7.24707 26.6665 9.59971V22.4003Z" fill="white"/>
<path d="M22.9335 10.6662C23.8172 10.6662 24.5335 9.94984 24.5335 9.06619C24.5335 8.18253 23.8172 7.46619 22.9335 7.46619C22.0498 7.46619 21.3335 8.18253 21.3335 9.06619C21.3335 9.94984 22.0498 10.6662 22.9335 10.6662Z" fill="white"/>
<path d="M16.0001 9.59973C12.4647 9.59973 9.6001 12.4647 9.6001 15.9997C9.6001 19.5335 12.4647 22.4004 16.0001 22.4004C19.5345 22.4004 22.4001 19.5335 22.4001 15.9997C22.4001 12.4647 19.5345 9.59973 16.0001 9.59973ZM16.0001 20.2669C13.6439 20.2669 11.7335 18.3565 11.7335 15.9997C11.7335 13.6429 13.6439 11.7332 16.0001 11.7332C18.3563 11.7332 20.2667 13.6429 20.2667 15.9997C20.2667 18.3565 18.3563 20.2669 16.0001 20.2669Z" fill="white"/>
</svg>
