<svg width="19" height="17" viewBox="0 0 19 17" fill="none" xmlns="http://www.w3.org/2000/svg">
<path d="M18.7066 0.88736C18.4746 0.603531 18.1269 0.447266 17.7277 0.447266C17.5107 0.447266 17.2808 0.492928 17.0445 0.583237L0.961395 6.72266C0.107879 7.04839 -0.00707314 7.53719 0.000319737 7.79956C0.00771261 8.06194 0.150207 8.54349 1.02083 8.8205C1.02605 8.8221 1.03126 8.82369 1.03648 8.82514L4.37256 9.77984L6.17671 14.9389C6.42271 15.6423 6.97485 16.0792 7.61789 16.0792C8.02334 16.0792 8.42212 15.9093 8.77118 15.588L10.8347 13.6881L13.8276 16.098C13.8279 16.0983 13.8283 16.0984 13.8286 16.0987L13.857 16.1216C13.8597 16.1237 13.8624 16.1258 13.865 16.1279C14.1977 16.3859 14.5608 16.5221 14.9155 16.5223H14.9157C15.6087 16.5223 16.1606 16.0093 16.3213 15.2155L18.9565 2.20344C19.0624 1.68115 18.9736 1.21381 18.7066 0.88736ZM5.48859 9.5985L11.9249 6.3104L7.91723 10.5688C7.85156 10.6386 7.80503 10.724 7.78213 10.8169L7.00935 13.9471L5.48859 9.5985ZM8.01696 14.769C7.99029 14.7935 7.96347 14.8154 7.93665 14.8356L8.65362 11.9317L9.95781 12.982L8.01696 14.769ZM17.8654 1.98238L15.2302 14.9946C15.2049 15.1191 15.1238 15.4089 14.9155 15.4089C14.8126 15.4089 14.6833 15.3528 14.551 15.2509L11.1595 12.5201C11.1591 12.5197 11.1585 12.5193 11.1579 12.519L9.13995 10.894L14.9355 4.73572C15.1211 4.53857 15.1379 4.23663 14.9754 4.02006C14.8128 3.80349 14.5181 3.73536 14.277 3.85857L4.74481 8.72831L1.36336 7.76086L17.4416 1.62331C17.5774 1.57142 17.6722 1.56055 17.7277 1.56055C17.7618 1.56055 17.8224 1.56461 17.8449 1.59229C17.8744 1.62839 17.9121 1.75146 17.8654 1.98238Z" fill="black"/>
</svg>
