<svg width="37" height="37" viewBox="0 0 37 37" fill="none" xmlns="http://www.w3.org/2000/svg">
<path d="M32.887 11.4487C32.7316 10.1526 31.5102 8.90899 30.2322 8.74286C22.4393 7.77494 14.559 7.77494 6.7687 8.74323C5.48961 8.90899 4.26824 10.1526 4.11284 11.4487C3.56265 16.1976 3.56265 20.8034 4.11284 25.5523C4.26824 26.8484 5.48961 28.0924 6.7687 28.2578C14.559 29.2253 22.4397 29.2253 30.2322 28.2578C31.5102 28.0928 32.7316 26.8484 32.887 25.5523C33.4372 20.8034 33.4372 16.1976 32.887 11.4487ZM30.4372 25.2682C30.4095 25.4402 30.0924 25.7725 29.9096 25.8124C26.1504 26.2786 22.3057 26.5169 18.4999 26.5169C14.6941 26.5169 10.8494 26.2783 7.0721 25.8102C6.90597 25.7725 6.59036 25.4402 6.5615 25.2574C6.03499 20.7142 6.03499 16.2868 6.56409 11.7328C6.59036 11.56 6.90745 11.2282 7.09171 11.1886C10.8494 10.7216 14.6941 10.4841 18.501 10.4841C22.3057 10.4841 26.1504 10.722 29.9288 11.1912C30.0913 11.2278 30.4095 11.5597 30.4383 11.7439C30.9645 16.2868 30.9645 20.7138 30.4372 25.2682Z" fill="white"/>
<path d="M16.0332 13.5668V23.4336L23.4332 18.5004L16.0332 13.5668Z" fill="white"/>
</svg>
